<svg width="139" height="42" viewBox="0 0 139 42" fill="none" xmlns="http://www.w3.org/2000/svg">
<path d="M137.121 36.6219C137.121 37.1366 137.019 37.6464 136.822 38.1219C136.625 38.5974 136.336 39.0294 135.972 39.3932C135.608 39.757 135.175 40.0455 134.699 40.2421C134.223 40.4387 133.713 40.5396 133.199 40.5391H4.83788C3.79751 40.5402 2.7993 40.1281 2.06279 39.3935C1.32627 38.6589 0.911756 37.662 0.9104 36.6219V5.38322C0.911756 4.34266 1.32611 3.34516 2.06248 2.60976C2.79885 1.87435 3.79704 1.46115 4.83788 1.46088H133.198C133.713 1.46088 134.223 1.56234 134.699 1.75947C135.175 1.9566 135.607 2.24553 135.971 2.60977C136.336 2.974 136.625 3.40641 136.822 3.88228C137.019 4.35816 137.12 4.86818 137.12 5.38322L137.121 36.6219Z" fill="white"/>
<path d="M133.199 41.4504H4.83799C3.55637 41.4501 2.32721 40.9416 1.4202 40.0364C0.513198 39.1311 0.00243856 37.9031 0 36.6219L0 5.38424C0.00189596 4.10233 0.512318 2.87351 1.41929 1.96735C2.32627 1.06119 3.55574 0.55168 4.83799 0.550598L133.198 0.550598C134.48 0.55222 135.709 1.0619 136.616 1.96794C137.523 2.87399 138.033 4.10249 138.036 5.38424V36.6219C138.038 39.2852 135.864 41.4504 133.199 41.4504Z" fill="#A6A6A6"/>
<path d="M137.121 36.6219C137.121 37.1366 137.019 37.6464 136.822 38.1219C136.625 38.5974 136.336 39.0294 135.972 39.3932C135.608 39.757 135.175 40.0455 134.699 40.2421C134.223 40.4387 133.713 40.5396 133.199 40.5391H4.83788C3.79751 40.5402 2.7993 40.1281 2.06279 39.3935C1.32627 38.6589 0.911756 37.662 0.9104 36.6219V5.38322C0.911756 4.34266 1.32611 3.34516 2.06248 2.60976C2.79885 1.87435 3.79704 1.46115 4.83788 1.46088H133.198C133.713 1.46088 134.223 1.56234 134.699 1.75947C135.175 1.9566 135.607 2.24553 135.971 2.60977C136.336 2.974 136.625 3.40641 136.822 3.88228C137.019 4.35816 137.12 4.86818 137.12 5.38322L137.121 36.6219Z" fill="black"/>
<path d="M30.8223 20.7852C30.7926 17.4888 33.5221 15.8851 33.6469 15.8104C32.1011 13.5572 29.7051 13.2494 28.8632 13.2248C26.8508 13.0131 24.8989 14.4286 23.8738 14.4286C22.8282 14.4286 21.2497 13.2453 19.5483 13.2801C17.359 13.3138 15.3109 14.581 14.1876 16.5488C11.8693 20.5612 13.5983 26.4575 15.8193 29.7007C16.9304 31.2901 18.2286 33.0626 19.9279 33.0002C21.5903 32.9327 22.2113 31.9416 24.2175 31.9416C26.2053 31.9416 26.7884 33.0002 28.5215 32.9603C30.3057 32.9327 31.429 31.3648 32.5011 29.7621C33.7851 27.9426 34.3007 26.1486 34.3211 26.0566C34.2802 26.0423 30.8571 24.7351 30.8223 20.7852ZM27.5486 11.0913C28.4427 9.97342 29.0545 8.45255 28.8847 6.90918C27.5905 6.96646 25.972 7.80411 25.04 8.89746C24.2155 9.86091 23.4789 11.4401 23.6692 12.9251C25.1229 13.0336 26.6155 12.1918 27.5486 11.0913Z" fill="white"/>
<path d="M133.199 0.550598H64.4448L91.3745 41.4504H133.199C134.481 41.4493 135.71 40.9401 136.617 40.0344C137.524 39.1286 138.034 37.9004 138.037 36.6188V5.38424C138.035 4.10241 137.524 2.87375 136.617 1.96765C135.71 1.06154 134.481 0.55195 133.199 0.550598Z" fill="url(#paint0_linear_4_275)"/>
<path d="M54.9019 32.7722H52.5786L51.3059 28.7742H46.8822L45.6699 32.7722H43.408L47.7917 19.1611H50.4987L54.9019 32.7722ZM50.9222 27.0968L49.7713 23.5427C49.6496 23.1796 49.4204 22.3245 49.0848 20.9786H49.0439C48.9089 21.5574 48.693 22.4125 48.3974 23.5427L47.2659 27.0968H50.9222ZM66.1534 27.7442C66.1534 29.4134 65.7002 30.7328 64.7927 31.7013C63.9804 32.5635 62.9707 32.9941 61.7665 32.9941C60.4662 32.9941 59.5312 32.5308 58.9634 31.6021V36.7518H56.7823V26.1835C56.7823 25.1351 56.7546 24.0602 56.7014 22.9576H58.6196L58.7414 24.5133H58.7823C59.5097 23.3412 60.6136 22.7551 62.0949 22.7551C63.253 22.7551 64.2198 23.2123 64.9932 24.1277C65.7656 25.0451 66.1534 26.2499 66.1534 27.7442ZM63.9313 27.824C63.9313 26.8687 63.7165 26.0812 63.2847 25.4604C62.8131 24.815 62.1798 24.4918 61.386 24.4918C60.8478 24.4918 60.3588 24.6718 59.922 25.0267C59.4841 25.3847 59.1977 25.8521 59.0636 26.431C59.0038 26.6475 58.9698 26.8703 58.9624 27.0948V28.7322C58.9624 29.4451 59.1813 30.0475 59.6192 30.5405C60.057 31.0314 60.6258 31.2779 61.3256 31.2779C62.1471 31.2779 62.7865 30.9598 63.2438 30.3288C63.7021 29.6957 63.9313 28.8611 63.9313 27.824ZM77.4447 27.7442C77.4447 29.4134 76.9915 30.7328 76.0841 31.7013C75.2708 32.5635 74.262 32.9941 73.0569 32.9941C71.7566 32.9941 70.8215 32.5308 70.2537 31.6021V36.7518H68.0726V26.1835C68.0726 25.1351 68.045 24.0602 67.9918 22.9576H69.91L70.0317 24.5133H70.0727C70.799 23.3412 71.9029 22.7551 73.3853 22.7551C74.5423 22.7551 75.5091 23.2123 76.2846 24.1277C77.056 25.0451 77.4447 26.2499 77.4447 27.7442ZM75.2217 27.824C75.2217 26.8687 75.0058 26.0812 74.5741 25.4604C74.1024 24.815 73.4712 24.4918 72.6773 24.4918C72.1392 24.4918 71.6502 24.6718 71.2113 25.0267C70.7734 25.3847 70.488 25.8521 70.354 26.431C70.2875 26.701 70.2517 26.9209 70.2517 27.0948V28.7322C70.2517 29.4451 70.4716 30.0475 70.9075 30.5405C71.3453 31.0304 71.9141 31.2779 72.616 31.2779C73.4385 31.2779 74.0779 30.9598 74.5342 30.3288C74.9925 29.6957 75.2217 28.8611 75.2217 27.824ZM90.0691 28.9542C90.0691 30.113 89.664 31.0549 88.8589 31.7821C87.9729 32.5758 86.736 32.9737 85.1503 32.9737C83.6853 32.9737 82.5109 32.6914 81.6249 32.1258L82.1293 30.3083C83.0858 30.8749 84.1365 31.1572 85.2803 31.1572C86.1028 31.1572 86.7422 30.9711 87.1985 30.6019C87.6558 30.2316 87.887 29.7366 87.887 29.1188C87.887 28.5655 87.6957 28.1022 87.3202 27.7248C86.9427 27.3484 86.3186 26.9976 85.4419 26.6754C83.0582 25.7866 81.8653 24.4867 81.8653 22.7766C81.8653 21.6597 82.2868 20.7454 83.1278 20.0304C83.9687 19.3165 85.0838 18.9596 86.4711 18.9596C87.71 18.9596 88.7422 19.1754 89.5617 19.606L89.0144 21.3836C88.243 20.9663 87.3724 20.7576 86.3984 20.7576C85.6291 20.7576 85.0255 20.9468 84.5938 21.3232C84.2306 21.6597 84.0465 22.0699 84.0465 22.5567C84.0465 23.0937 84.2562 23.5396 84.6736 23.8894C85.0357 24.2115 85.6966 24.5624 86.6521 24.9387C87.8246 25.4113 88.686 25.9615 89.2374 26.5936C89.7929 27.2257 90.0691 28.0142 90.0691 28.9542ZM97.299 24.5941H94.8948V29.3592C94.8948 30.5712 95.3184 31.1756 96.1675 31.1756C96.5573 31.1756 96.8806 31.1429 97.1363 31.0744L97.1967 32.7302C96.767 32.8908 96.2013 32.9716 95.5005 32.9716C94.6391 32.9716 93.9659 32.7088 93.48 32.1831C92.9961 31.6574 92.7526 30.7767 92.7526 29.5371V24.59H91.3203V22.9535H92.7526V21.1565L94.8948 20.5101V22.9535H97.299V24.5941ZM108.125 27.7841C108.125 29.2927 107.693 30.5313 106.832 31.4999C105.93 32.4971 104.731 32.9941 103.237 32.9941C101.794 32.9941 100.647 32.5165 99.7922 31.5622C98.9369 30.6059 98.5093 29.4011 98.5093 27.9478C98.5093 26.4269 98.9512 25.1811 99.8321 24.2126C100.715 23.243 101.904 22.7582 103.398 22.7582C104.839 22.7582 105.996 23.2368 106.872 24.1921C107.709 25.1188 108.125 26.3154 108.125 27.7841ZM105.864 27.8342C105.864 26.9352 105.67 26.164 105.28 25.5187C104.822 24.7393 104.168 24.3496 103.32 24.3496C102.446 24.3496 101.776 24.7393 101.32 25.5187C100.929 26.164 100.734 26.9485 100.734 27.8751C100.734 28.7752 100.929 29.5484 101.32 30.1917C101.791 30.9711 102.449 31.3608 103.301 31.3608C104.135 31.3608 104.789 30.9629 105.261 30.1723C105.662 29.5116 105.864 28.7353 105.864 27.8342ZM115.218 24.8753C114.991 24.8344 114.761 24.8142 114.53 24.815C113.763 24.815 113.17 25.1034 112.752 25.6843C112.39 26.1957 112.208 26.8421 112.208 27.6225V32.7722H110.027V26.0485C110.029 25.0182 110.008 23.988 109.963 22.9586H111.863L111.943 24.8365H112.003C112.234 24.1911 112.597 23.6705 113.094 23.2808C113.549 22.9403 114.102 22.7559 114.67 22.7551C114.872 22.7551 115.054 22.7694 115.216 22.795L115.218 24.8753ZM124.972 27.4006C124.978 27.732 124.951 28.0633 124.893 28.3896H118.349C118.374 29.3592 118.691 30.1017 119.299 30.6131C119.85 31.0693 120.563 31.2984 121.439 31.2984C122.408 31.2984 123.292 31.1449 124.086 30.835L124.428 32.3477C123.499 32.7528 122.403 32.9542 121.137 32.9542C119.615 32.9542 118.42 32.5063 117.55 31.6124C116.683 30.7174 116.248 29.5146 116.248 28.0081C116.248 26.5292 116.652 25.2967 117.461 24.3138C118.308 23.2645 119.453 22.7398 120.894 22.7398C122.308 22.7398 123.38 23.2645 124.107 24.3138C124.683 25.1453 124.972 26.1763 124.972 27.4006ZM122.893 26.835C122.908 26.1876 122.765 25.6301 122.469 25.1586C122.092 24.5511 121.51 24.2484 120.732 24.2484C120.019 24.2484 119.438 24.544 118.996 25.1372C118.633 25.6087 118.417 26.1753 118.35 26.8329L122.893 26.835Z" fill="white"/>
<path d="M46.2529 14.3489C45.6462 14.3489 45.1214 14.3192 44.6846 14.2691V7.68857C45.2955 7.59422 45.913 7.54771 46.5312 7.54947C49.0325 7.54947 50.1845 8.77987 50.1845 10.7855C50.1845 13.0991 48.8238 14.3489 46.2529 14.3489ZM46.6192 8.39326C46.2815 8.39326 45.9941 8.41372 45.7557 8.46281V13.4652C45.8846 13.4857 46.1322 13.4949 46.48 13.4949C48.1189 13.4949 49.052 12.5621 49.052 10.8152C49.052 9.25751 48.2079 8.39326 46.6192 8.39326ZM53.7743 14.399C52.3646 14.399 51.451 13.3466 51.451 11.9178C51.451 10.4286 52.384 9.36695 53.8541 9.36695C55.2434 9.36695 56.1775 10.3693 56.1775 11.839C56.1775 13.3466 55.2148 14.399 53.7743 14.399ZM53.8153 10.1504C53.0408 10.1504 52.5446 10.8745 52.5446 11.8871C52.5446 12.8802 53.051 13.6043 53.805 13.6043C54.559 13.6043 55.0654 12.8301 55.0654 11.8666C55.0654 10.8847 54.5692 10.1504 53.8153 10.1504ZM64.2166 9.46616L62.7076 14.2896H61.7244L61.0994 12.1949C60.9439 11.6826 60.8145 11.1627 60.7116 10.6372H60.6912C60.6124 11.1629 60.463 11.6897 60.3044 12.1949L59.6395 14.2896H58.6461L57.2261 9.46616H58.3279L58.8742 11.7592C59.0031 12.3054 59.1116 12.8209 59.2016 13.3077H59.2221C59.3008 12.9017 59.4297 12.3944 59.619 11.7694L60.3044 9.46718H61.1781L61.8339 11.7204C61.9925 12.2665 62.1214 12.8025 62.2216 13.3087H62.2503C62.3199 12.8127 62.4293 12.2859 62.5777 11.7204L63.1639 9.46718L64.2166 9.46616ZM69.7717 14.2896H68.6996V11.5199C68.6996 10.6669 68.3722 10.2394 67.7267 10.2394C67.0913 10.2394 66.6545 10.7855 66.6545 11.4207V14.2896H65.5824V10.8449C65.5824 10.4184 65.5721 9.96118 65.5425 9.46513H66.4857L66.5358 10.2097H66.5655C66.854 9.69424 67.4392 9.36695 68.0949 9.36695C69.1078 9.36695 69.7727 10.1412 69.7727 11.4012L69.7717 14.2896ZM72.7283 14.2896H71.6552V7.25287H72.7283V14.2896ZM76.6374 14.399C75.2287 14.399 74.3141 13.3466 74.3141 11.9178C74.3141 10.4286 75.2471 9.36695 76.7162 9.36695C78.1065 9.36695 79.0395 10.3693 79.0395 11.839C79.0405 13.3466 78.0768 14.399 76.6374 14.399ZM76.6773 10.1504C75.9028 10.1504 75.4067 10.8745 75.4067 11.8871C75.4067 12.8802 75.9141 13.6043 76.666 13.6043C77.4211 13.6043 77.9264 12.8301 77.9264 11.8666C77.9275 10.8847 77.4323 10.1504 76.6773 10.1504ZM83.2667 14.2896L83.189 13.7342H83.1603C82.833 14.1812 82.3552 14.399 81.7496 14.399C80.8851 14.399 80.2713 13.7935 80.2713 12.9794C80.2713 11.7889 81.3035 11.1732 83.0908 11.1732V11.0842C83.0908 10.449 82.7542 10.131 82.0892 10.131C81.6135 10.131 81.1961 10.2506 80.8288 10.4889L80.6109 9.78424C81.057 9.50604 81.6135 9.36695 82.2672 9.36695C83.5276 9.36695 84.1639 10.0318 84.1639 11.3624V13.1389C84.1639 13.6258 84.1854 14.0032 84.2335 14.2906L83.2667 14.2896ZM83.1194 11.8871C81.9286 11.8871 81.3311 12.1755 81.3311 12.8597C81.3311 13.366 81.6391 13.6135 82.0667 13.6135C82.612 13.6135 83.1194 13.1972 83.1194 12.6316V11.8871ZM89.3702 14.2896L89.3201 13.5153H89.2904C88.9825 14.1004 88.4648 14.399 87.7415 14.399C86.5783 14.399 85.7169 13.3762 85.7169 11.9372C85.7169 10.4286 86.6101 9.36592 87.8295 9.36592C88.4751 9.36592 88.9324 9.58378 89.1902 10.0215H89.2117V7.25287H90.2848V12.9896C90.2848 13.456 90.2961 13.8927 90.3247 14.2896H89.3702ZM89.2117 11.4514C89.2117 10.7763 88.7646 10.2005 88.0822 10.2005C87.2873 10.2005 86.8014 10.9052 86.8014 11.8973C86.8014 12.87 87.3057 13.5358 88.0607 13.5358C88.7349 13.5358 89.2117 12.9497 89.2117 12.2553V11.4514ZM97.0891 14.399C95.6804 14.399 94.7668 13.3466 94.7668 11.9178C94.7668 10.4286 95.6998 9.36695 97.1689 9.36695C98.5592 9.36695 99.4923 10.3693 99.4923 11.839C99.4933 13.3466 98.5306 14.399 97.0891 14.399ZM97.129 10.1504C96.3556 10.1504 95.8594 10.8745 95.8594 11.8871C95.8594 12.8802 96.3658 13.6043 97.1188 13.6043C97.8738 13.6043 98.3792 12.8301 98.3792 11.8666C98.3812 10.8847 97.8851 10.1504 97.129 10.1504ZM105.258 14.2896H104.185V11.5199C104.185 10.6669 103.858 10.2394 103.212 10.2394C102.577 10.2394 102.141 10.7855 102.141 11.4207V14.2896H101.068V10.8449C101.068 10.4184 101.058 9.96118 101.028 9.46513H101.971L102.021 10.2097H102.051C102.338 9.69424 102.925 9.36592 103.579 9.36592C104.592 9.36592 105.258 10.1402 105.258 11.4002V14.2896ZM112.472 10.2701H111.292V12.6122C111.292 13.2085 111.499 13.5061 111.916 13.5061C112.105 13.5061 112.264 13.4857 112.392 13.456L112.422 14.2701C112.214 14.3499 111.936 14.3898 111.59 14.3898C110.745 14.3898 110.239 13.9234 110.239 12.7022V10.2701H109.536V9.46616H110.239V8.58248L111.292 8.26439V9.46513H112.472V10.2701ZM118.148 14.2896H117.076V11.5403C117.076 10.6771 116.75 10.2404 116.103 10.2404C115.548 10.2404 115.03 10.6178 115.03 11.3818V14.2896H113.959V7.25287H115.03V10.1504H115.052C115.389 9.62469 115.878 9.36592 116.502 9.36592C117.523 9.36592 118.148 10.1596 118.148 11.4207V14.2896ZM123.963 12.1356H120.745C120.766 13.0489 121.37 13.5644 122.265 13.5644C122.741 13.5644 123.179 13.4846 123.566 13.3363L123.732 14.0809C123.276 14.2793 122.739 14.3786 122.114 14.3786C120.605 14.3786 119.712 13.4253 119.712 11.9474C119.712 10.4685 120.626 9.35672 121.993 9.35672C123.226 9.35672 123.999 10.2701 123.999 11.6498C124.006 11.8126 123.994 11.9757 123.963 12.1356ZM122.979 11.3716C122.979 10.627 122.604 10.1013 121.918 10.1013C121.303 10.1013 120.816 10.6372 120.746 11.3716H122.979Z" fill="white"/>
<defs>
<linearGradient id="paint0_linear_4_275" x1="101.24" y1="41.559" x2="101.24" y2="-105.945" gradientUnits="userSpaceOnUse">
<stop stop-color="#1A1A1A" stop-opacity="0.1"/>
<stop offset="0.123" stop-color="#212121" stop-opacity="0.151"/>
<stop offset="0.308" stop-color="#353535" stop-opacity="0.227"/>
<stop offset="0.532" stop-color="#575757" stop-opacity="0.318"/>
<stop offset="0.783" stop-color="#858585" stop-opacity="0.421"/>
<stop offset="1" stop-color="#B3B3B3" stop-opacity="0.51"/>
</linearGradient>
</defs>
</svg>
