<svg width="138" height="41" viewBox="0 0 138 41" fill="none" xmlns="http://www.w3.org/2000/svg">
<path d="M132.889 40.8889H5.11111C2.24889 40.8889 0 38.64 0 35.7778V5.11111C0 2.24889 2.24889 0 5.11111 0H132.889C135.751 0 138 2.24889 138 5.11111V35.7778C138 38.64 135.751 40.8889 132.889 40.8889Z" fill="black"/>
<path d="M132.889 0.817778C135.24 0.817778 137.182 2.76 137.182 5.11111V35.7778C137.182 38.1289 135.24 40.0711 132.889 40.0711H5.11111C2.76 40.0711 0.817778 38.1289 0.817778 35.7778V5.11111C0.817778 2.76 2.76 0.817778 5.11111 0.817778H132.889ZM132.889 0H5.11111C2.24889 0 0 2.35111 0 5.11111V35.7778C0 38.64 2.24889 40.8889 5.11111 40.8889H132.889C135.751 40.8889 138 38.64 138 35.7778V5.11111C138 2.35111 135.751 0 132.889 0Z" fill="#A6A6A6"/>
<path d="M48.4534 10.4267C48.4534 11.2445 48.249 11.96 47.7378 12.4711C47.1245 13.0845 46.409 13.3911 45.489 13.3911C44.569 13.3911 43.8534 13.0845 43.2401 12.4711C42.6267 11.8578 42.3201 11.1422 42.3201 10.2222C42.3201 9.30223 42.6267 8.58668 43.2401 7.97334C43.8534 7.36001 44.569 7.05334 45.489 7.05334C45.8978 7.05334 46.3067 7.15557 46.7156 7.36001C47.1245 7.56446 47.4312 7.7689 47.6356 8.07557L47.1245 8.58668C46.7156 8.07557 46.2045 7.87112 45.489 7.87112C44.8756 7.87112 44.2623 8.07557 43.8534 8.58668C43.3423 8.99557 43.1378 9.6089 43.1378 10.3245C43.1378 11.04 43.3423 11.6533 43.8534 12.0622C44.3645 12.4711 44.8756 12.7778 45.489 12.7778C46.2045 12.7778 46.7156 12.5733 47.2267 12.0622C47.5334 11.7556 47.7378 11.3467 47.7378 10.8356H45.489V10.0178H48.4534V10.4267ZM53.1556 7.87112H50.3956V9.81334H52.9512V10.5289H50.3956V12.4711H53.1556V13.2889H49.5778V7.15557H53.1556V7.87112ZM56.529 13.2889H55.7112V7.87112H53.9734V7.15557H58.2667V7.87112H56.529V13.2889ZM61.2312 13.2889V7.15557H62.049V13.2889H61.2312ZM65.5245 13.2889H64.7067V7.87112H62.969V7.15557H67.1601V7.87112H65.4223V13.2889H65.5245ZM75.2356 12.4711C74.6223 13.0845 73.9067 13.3911 72.9867 13.3911C72.0667 13.3911 71.3512 13.0845 70.7378 12.4711C70.1245 11.8578 69.8178 11.1422 69.8178 10.2222C69.8178 9.30223 70.1245 8.58668 70.7378 7.97334C71.3512 7.36001 72.0667 7.05334 72.9867 7.05334C73.9067 7.05334 74.6223 7.36001 75.2356 7.97334C75.849 8.58668 76.1556 9.30223 76.1556 10.2222C76.1556 11.1422 75.849 11.8578 75.2356 12.4711ZM71.3512 11.96C71.7601 12.3689 72.3734 12.6756 72.9867 12.6756C73.6001 12.6756 74.2134 12.4711 74.6223 11.96C75.0312 11.5511 75.3378 10.9378 75.3378 10.2222C75.3378 9.50668 75.1334 8.89334 74.6223 8.48446C74.2134 8.07557 73.6001 7.7689 72.9867 7.7689C72.3734 7.7689 71.7601 7.97334 71.3512 8.48446C70.9423 8.89334 70.6356 9.50668 70.6356 10.2222C70.6356 10.9378 70.8401 11.5511 71.3512 11.96ZM77.2801 13.2889V7.15557H78.2001L81.1645 11.96V7.15557H81.9823V13.2889H81.1645L77.9956 8.28001V13.2889H77.2801Z" fill="white" stroke="white" stroke-width="1.18519" stroke-miterlimit="10"/>
<path d="M69.6134 22.2844C67.1601 22.2844 65.2179 24.1244 65.2179 26.68C65.2179 29.1333 67.1601 31.0755 69.6134 31.0755C72.0668 31.0755 74.009 29.2355 74.009 26.68C74.009 24.0222 72.0668 22.2844 69.6134 22.2844ZM69.6134 29.2355C68.2845 29.2355 67.1601 28.1111 67.1601 26.5778C67.1601 25.0444 68.2845 23.92 69.6134 23.92C70.9423 23.92 72.0668 24.9422 72.0668 26.5778C72.0668 28.1111 70.9423 29.2355 69.6134 29.2355ZM60.1068 22.2844C57.6534 22.2844 55.7112 24.1244 55.7112 26.68C55.7112 29.1333 57.6534 31.0755 60.1068 31.0755C62.5601 31.0755 64.5023 29.2355 64.5023 26.68C64.5023 24.0222 62.5601 22.2844 60.1068 22.2844ZM60.1068 29.2355C58.7779 29.2355 57.6534 28.1111 57.6534 26.5778C57.6534 25.0444 58.7779 23.92 60.1068 23.92C61.4356 23.92 62.5601 24.9422 62.5601 26.5778C62.5601 28.1111 61.4356 29.2355 60.1068 29.2355ZM48.7601 23.6133V25.4533H53.1557C53.0534 26.4755 52.6445 27.2933 52.1334 27.8044C51.5201 28.4178 50.4979 29.1333 48.7601 29.1333C46.0001 29.1333 43.9557 26.9866 43.9557 24.2266C43.9557 21.4666 46.1023 19.32 48.7601 19.32C50.1912 19.32 51.3157 19.9333 52.1334 20.6489L53.4623 19.32C52.3379 18.2978 50.9068 17.48 48.8623 17.48C45.1823 17.48 42.0134 20.5466 42.0134 24.2266C42.0134 27.9066 45.1823 30.9733 48.8623 30.9733C50.9068 30.9733 52.3379 30.36 53.5645 29.0311C54.7912 27.8044 55.2001 26.0666 55.2001 24.7378C55.2001 24.3289 55.2001 23.92 55.0979 23.6133H48.7601ZM95.169 25.0444C94.7601 24.0222 93.7379 22.2844 91.489 22.2844C89.2401 22.2844 87.4001 24.0222 87.4001 26.68C87.4001 29.1333 89.2401 31.0755 91.6934 31.0755C93.6356 31.0755 94.8623 29.8489 95.2712 29.1333L93.8401 28.1111C93.329 28.8266 92.7156 29.3378 91.6934 29.3378C90.6712 29.3378 90.0579 28.9289 89.5468 28.0089L95.3734 25.5555L95.169 25.0444ZM89.2401 26.4755C89.2401 24.84 90.569 23.92 91.489 23.92C92.2045 23.92 92.9201 24.3289 93.1245 24.84L89.2401 26.4755ZM84.4356 30.6666H86.3779V17.8889H84.4356V30.6666ZM81.369 23.2044C80.8579 22.6933 80.0401 22.1822 79.0179 22.1822C76.8712 22.1822 74.8268 24.1244 74.8268 26.5778C74.8268 29.0311 76.769 30.8711 79.0179 30.8711C80.0401 30.8711 80.8579 30.36 81.2668 29.8489H81.369V30.4622C81.369 32.0978 80.449 33.0178 79.0179 33.0178C77.8934 33.0178 77.0756 32.2 76.8712 31.4844L75.2356 32.2C75.7468 33.3244 76.9734 34.7555 79.1201 34.7555C81.369 34.7555 83.209 33.4266 83.209 30.2578V22.4889H81.369V23.2044ZM79.1201 29.2355C77.7912 29.2355 76.6668 28.1111 76.6668 26.5778C76.6668 25.0444 77.7912 23.92 79.1201 23.92C80.449 23.92 81.4712 25.0444 81.4712 26.5778C81.4712 28.1111 80.449 29.2355 79.1201 29.2355ZM104.062 17.8889H99.4623V30.6666H101.405V25.8622H104.062C106.209 25.8622 108.253 24.3289 108.253 21.8755C108.253 19.4222 106.209 17.8889 104.062 17.8889ZM104.165 24.0222H101.405V19.6266H104.165C105.596 19.6266 106.413 20.8533 106.413 21.7733C106.311 22.8978 105.493 24.0222 104.165 24.0222ZM115.92 22.1822C114.489 22.1822 113.058 22.7955 112.547 24.1244L114.285 24.84C114.693 24.1244 115.307 23.92 116.022 23.92C117.045 23.92 117.965 24.5333 118.067 25.5555V25.6578C117.76 25.4533 116.942 25.1466 116.125 25.1466C114.285 25.1466 112.445 26.1689 112.445 28.0089C112.445 29.7466 113.978 30.8711 115.613 30.8711C116.942 30.8711 117.556 30.2578 118.067 29.6444H118.169V30.6666H120.009V25.76C119.805 23.5111 118.067 22.1822 115.92 22.1822ZM115.716 29.2355C115.102 29.2355 114.182 28.9289 114.182 28.1111C114.182 27.0889 115.307 26.7822 116.227 26.7822C117.045 26.7822 117.453 26.9866 117.965 27.1911C117.76 28.4178 116.738 29.2355 115.716 29.2355ZM126.449 22.4889L124.302 28.0089H124.2L121.951 22.4889H119.907L123.28 30.2578L121.338 34.5511H123.28L128.493 22.4889H126.449ZM109.276 30.6666H111.218V17.8889H109.276V30.6666Z" fill="white"/>
<path d="M10.6311 7.66675C10.3244 7.97341 10.2222 8.48453 10.2222 9.09786V31.689C10.2222 32.3023 10.4266 32.8134 10.7333 33.1201L10.8355 33.2223L23.5111 20.5467V20.3423L10.6311 7.66675Z" fill="url(#paint0_linear_4_261)"/>
<path d="M27.6 24.84L23.4089 20.6489V20.3422L27.6 16.1511L27.7023 16.2533L32.7112 19.1156C34.1423 19.9333 34.1423 21.2622 32.7112 22.08L27.6 24.84Z" fill="url(#paint1_linear_4_261)"/>
<path d="M27.7022 24.7379L23.4089 20.4445L10.6311 33.2223C11.1422 33.7334 11.8578 33.7334 12.7778 33.3245L27.7022 24.7379Z" fill="url(#paint2_linear_4_261)"/>
<path d="M27.7022 16.1512L12.7778 7.66672C11.8578 7.15561 11.1422 7.25783 10.6311 7.76894L23.4089 20.4445L27.7022 16.1512Z" fill="url(#paint3_linear_4_261)"/>
<path opacity="0.2" d="M27.6 24.6356L12.7778 33.0178C11.96 33.529 11.2444 33.4267 10.7333 33.0178L10.6311 33.1201L10.7333 33.2223C11.2444 33.6312 11.96 33.7334 12.7778 33.2223L27.6 24.6356Z" fill="black"/>
<path opacity="0.12" d="M10.6311 33.0179C10.3244 32.7112 10.2222 32.2001 10.2222 31.5867V31.689C10.2222 32.3023 10.4266 32.8134 10.7333 33.1201V33.0179H10.6311ZM32.7111 21.7734L27.5999 24.6356L27.7022 24.7379L32.7111 21.8756C33.4266 21.4667 33.7333 20.9556 33.7333 20.4445C33.7333 20.9556 33.3244 21.3645 32.7111 21.7734Z" fill="black"/>
<path opacity="0.25" d="M12.7777 7.7689L32.7111 19.1156C33.3244 19.5245 33.7333 19.9333 33.7333 20.4445C33.7333 19.9333 33.4266 19.4222 32.7111 19.0133L12.7777 7.66668C11.3466 6.8489 10.2222 7.46224 10.2222 9.09779V9.20001C10.2222 7.66668 11.3466 6.95112 12.7777 7.7689Z" fill="white"/>
<defs>
<linearGradient id="paint0_linear_4_261" x1="22.2844" y1="8.90364" x2="5.12843" y2="26.0586" gradientUnits="userSpaceOnUse">
<stop stop-color="#00A0FF"/>
<stop offset="0.007" stop-color="#00A1FF"/>
<stop offset="0.26" stop-color="#00BEFF"/>
<stop offset="0.512" stop-color="#00D2FF"/>
<stop offset="0.76" stop-color="#00DFFF"/>
<stop offset="1" stop-color="#00E3FF"/>
</linearGradient>
<linearGradient id="paint1_linear_4_261" x1="34.5859" y1="20.4455" x2="9.8512" y2="20.4455" gradientUnits="userSpaceOnUse">
<stop stop-color="#FFE000"/>
<stop offset="0.409" stop-color="#FFBD00"/>
<stop offset="0.775" stop-color="#FFA500"/>
<stop offset="1" stop-color="#FF9C00"/>
</linearGradient>
<linearGradient id="paint2_linear_4_261" x1="25.3787" y1="22.7915" x2="2.11497" y2="46.0553" gradientUnits="userSpaceOnUse">
<stop stop-color="#FF3A44"/>
<stop offset="1" stop-color="#C31162"/>
</linearGradient>
<linearGradient id="paint3_linear_4_261" x1="7.45915" y1="0.179963" x2="17.848" y2="10.5688" gradientUnits="userSpaceOnUse">
<stop stop-color="#32A071"/>
<stop offset="0.069" stop-color="#2DA771"/>
<stop offset="0.476" stop-color="#15CF74"/>
<stop offset="0.801" stop-color="#06E775"/>
<stop offset="1" stop-color="#00F076"/>
</linearGradient>
</defs>
</svg>
